<?xml version="1.0" standalone="no"?><!DOCTYPE svg PUBLIC "-//W3C//DTD SVG 1.1//EN" "http://www.w3.org/Graphics/SVG/1.1/DTD/svg11.dtd"><svg t="1716297706305" class="icon" viewBox="0 0 1024 1024" version="1.1" xmlns="http://www.w3.org/2000/svg" p-id="29930" xmlns:xlink="http://www.w3.org/1999/xlink" width="200" height="200"><path d="M510.02297 88.925782a59.990178 59.990178 0 0 1 58.854654 71.629307l236.797465 109.294258a59.990178 59.990178 0 1 1 32.909941 92.312079L748.83802 504.943525l86.45196 141.45394a59.990178 59.990178 0 1 1-21.392475 100.686575L568.90804 853.874059a59.990178 59.990178 0 1 1-117.141545-2.838811L210.57901 742.491248a59.990178 59.990178 0 1 1-25.812911-96.103921l84.33299-138.016951-91.338772-145.316752a59.990178 59.990178 0 1 1 32.423287-98.486495L451.137901 160.392871a59.990178 59.990178 0 0 1 58.885069-71.467089z m0 741.811961a34.643644 34.643644 0 1 0 0 69.277148 34.643644 34.643644 0 0 0 0-69.277148z m167.895446-212.961585L550.242851 820.88301c3.224079 2.909782 6.123723 6.164277 8.648238 9.702653l240.285149-104.731881a60.233505 60.233505 0 0 1-3.153109-35.120158l-118.114852-72.957466z m-340.586456-0.861782l-115.134099 67.168317a59.919208 59.919208 0 0 1 3.102416 19.070733c0 5.931089-0.861782 11.659406-2.463683 17.053148l240.072238 108.03707c1.31802-1.68301 2.737426-3.284911 4.23794-4.815842L337.33196 616.914376z m101.751129-59.351445l-79.851723 46.576792 129.064555 205.30693a59.838099 59.838099 0 0 1 21.727049-4.055445c6.36705 0 12.51105 0.983446 18.269782 2.828673l128.050694-203.765861-75.542812-46.657901a86.908198 86.908198 0 0 1-70.767525 36.367208 86.918337 86.918337 0 0 1-70.95002-36.600396zM165.310099 668.519921a34.643644 34.643644 0 1 0 0 69.277148 34.643644 34.643644 0 0 0 0-69.277148z m689.425743 0a34.643644 34.643644 0 1 0 0 69.277148 34.643644 34.643644 0 0 0 0-69.277148z m-120.953664-139.618852l-42.379406 67.411644 115.134099 71.122376a60.324752 60.324752 0 0 1 7.056476-7.928396l-79.821307-130.605624z m-449.617109 3.43699l-77.702336 127.168634c0.95303 0.902337 1.875644 1.82495 2.767841 2.788119L323.827327 595.440792l-39.662258-63.102733z m388.207525-103.900514l-81.879445 45.502099a86.766257 86.766257 0 0 1 6.549544 33.20396c0 9.814178-1.622178 19.243089-4.613069 28.043406l77.398178 47.813703 49.182416-78.249822-46.637624-76.313346z m-324.709386 0l-48.736317 79.750336 46.80998 74.478258 81.808476-47.702179a86.928475 86.928475 0 0 1-4.542099-27.820356c0-11.760792 2.331881-22.974099 6.559683-33.20396l-81.899723-45.502099z m162.359762 17.032871a61.673188 61.673188 0 1 0 0 123.346376 61.673188 61.673188 0 0 0 0-123.346376z m-304.908673-96.215446c-1.287604 1.145663-2.63604 2.230495-4.035168 3.274773l82.781782 131.700594 41.61901-68.111208-120.365624-66.874297z m609.817347 0l-120.385901 66.864159 39.520316 64.674218 82.051802-130.514377a60.324752 60.324752 0 0 1-1.186217-1.034138zM534.913267 203.492119a59.767129 59.767129 0 0 1-24.900435 5.393742c-8.881426 0-17.316752-1.926337-24.890297-5.393742L360.894099 406.791604l81.666535 45.370297a86.847366 86.847366 0 0 1 67.462336-32.03802 86.847366 86.847366 0 0 1 67.462337 32.03802l81.656396-45.370297-124.218297-203.279208z m23.886575-19.668911a60.263921 60.263921 0 0 1-3.518099 4.430574L681.314851 394.473188l118.540674-65.850297a60.314614 60.314614 0 0 1-4.065584-35.414178L558.80998 183.833347z m-97.675406-0.162218l-238.460198 103.119842c1.703287 5.55596 2.625901 11.456634 2.625901 17.580356 0 8.62796-1.82495 16.830099-5.109862 24.251564l118.520396 65.850298 126.022971-206.219406a60.253782 60.253782 0 0 1-3.599208-4.582654z m-295.824476 86.056555a34.643644 34.643644 0 1 0 0 69.287287 34.643644 34.643644 0 0 0 0-69.287287z m689.425743 0a34.643644 34.643644 0 1 0 0 69.287287 34.643644 34.643644 0 0 0 0-69.287287z m-344.712871-155.455367a34.643644 34.643644 0 1 0 0 69.277149 34.643644 34.643644 0 0 0 0-69.277149z" p-id="29931" fill="#ffcc66"></path></svg>